<svg xmlns="http://www.w3.org/2000/svg" xmlns:xlink="http://www.w3.org/1999/xlink" version="1.1" x="0px" y="0px" viewBox="0 0 100 125" enable-background="new 0 0 100 100" xml:space="preserve"><g><path d="M42.225,25.147l14.981,3.385c2.457,0.675,2.457,4.16,0,4.836l-14.981,3.385c-1.26,0.308-2.245,1.182-2.591,2.301   l-4.116,16.002c-0.675,2.457-4.16,2.457-4.836,0l-4.116-16.002c-0.346-1.119-1.331-1.994-2.591-2.301L8.993,33.367   c-2.457-0.675-2.457-4.16,0-4.836l14.981-3.385c1.26-0.308,2.245-1.182,2.591-2.301l4.116-16.002c0.675-2.457,4.16-2.457,4.836,0   l4.116,16.002C39.98,23.965,40.965,24.839,42.225,25.147z"/><path d="M79.55,50.539l11.843,2.676c1.943,0.534,1.943,3.289,0,3.822L79.55,59.714c-0.996,0.243-1.775,0.934-2.048,1.819   l-3.254,12.65c-0.534,1.943-3.289,1.943-3.822,0l-3.254-12.65c-0.274-0.885-1.052-1.576-2.048-1.819L53.28,57.038   c-1.943-0.534-1.943-3.289,0-3.822l11.843-2.676c0.996-0.243,1.775-0.934,2.048-1.819l3.254-12.65c0.534-1.943,3.289-1.943,3.822,0   l3.254,12.65C77.776,49.605,78.554,50.296,79.55,50.539z"/><path d="M49.352,76.273l8.84,1.998c1.45,0.398,1.45,2.455,0,2.854l-8.84,1.998c-0.744,0.181-1.325,0.698-1.529,1.358l-2.429,9.443   c-0.398,1.45-2.455,1.45-2.853,0l-2.429-9.443c-0.204-0.661-0.785-1.177-1.529-1.358l-8.84-1.998c-1.45-0.398-1.45-2.455,0-2.854   l8.84-1.998c0.744-0.181,1.325-0.698,1.529-1.358l2.429-9.443c0.398-1.45,2.455-1.45,2.853,0l2.429,9.443   C48.028,75.575,48.609,76.092,49.352,76.273z"/></g><text x="0" y="115" fill="#000000" font-size="5px" font-weight="bold" font-family="'Helvetica Neue', Helvetica, Arial-Unicode, Arial, Sans-serif">Created by Nico Tzogalis</text><text x="0" y="120" fill="#000000" font-size="5px" font-weight="bold" font-family="'Helvetica Neue', Helvetica, Arial-Unicode, Arial, Sans-serif">from the Noun Project</text></svg>