<svg xmlns:dc="http://purl.org/dc/elements/1.1/" xmlns:cc="http://creativecommons.org/ns#" xmlns:rdf="http://www.w3.org/1999/02/22-rdf-syntax-ns#" xmlns:svg="http://www.w3.org/2000/svg" xmlns="http://www.w3.org/2000/svg" xmlns:sodipodi="http://sodipodi.sourceforge.net/DTD/sodipodi-0.dtd" xmlns:inkscape="http://www.inkscape.org/namespaces/inkscape" version="1.1" x="0px" y="0px" viewBox="0 0 100 125"><g transform="translate(0,-952.36218)"><path style="text-indent:0;text-transform:none;direction:ltr;block-progression:tb;baseline-shift:baseline;color:#000000;enable-background:accumulate;" d="m 49.968755,962.40408 c -0.2265,0.014 -0.4567,0.0632 -0.6874,0.125 l -20.9063,7.90623 c -1.1806,0.5188 -1.375,1.1289 -1.375,2.25 l 0,22.2813 -19.8749995,9.46869 c -0.8669,0.5006 -1.125,1.1724 -1.125,2.125 l 0,23.5625 c -0.01,0.75 0.4506,1.4844 1.125,1.8125 l 20.5312995,10 c 0.7936,0.4582 1.5655,0.4807 2.375,0.1562 l 19.9687,-9.7187 20.000003,9.75 c 0.7619,0.4072 1.5715,0.1036 2.1875,-0.094 l 20.6875,-10.0938 c 0.6744,-0.3281 1.1303,-1.0625 1.125,-1.8125 l 0,-23.5937 c 0,-1.1602 -0.3917,-1.6498 -1.3125,-2.1562 l -19.6875,-9.37499 0,-22.375 c 0.025,-1.0069 -0.8493,-2.0444 -1.5,-2.2188 l -20.812503,-7.87503 c -0.2692,-0.11768 -0.4922,-0.13897 -0.7188,-0.125 z m 0.031,4.12503 15.781303,6 -15.781303,7.1875 -15.8125,-7.1875 15.8125,-6 z m -19,8.9062 17,7.75 0,20.09379 -17,-8.28129 0,-19.5625 z m -2.0313,23 16.0626,7.84379 -16.0313,7.3437 -16.2813,-7.4375 16.25,-7.74999 z m 42.031303,0 16.25,7.74999 -16.25,7.4375 -16.031303,-7.3437 16.031303,-7.84379 z m -61.0000025,10.90629 16.9999995,7.7499 0,20.0938 -16.9999995,-8.3125 0,-19.5312 z m 41.9999995,0 17.000003,7.7499 0,20.0938 -17.000003,-8.2813 0,-19.5624 z" fill="#000000" fill-opacity="1" fill-rule="evenodd" stroke="none" marker="none" visibility="visible" display="inline" overflow="visible"/></g><text x="0" y="115" fill="#000000" font-size="5px" font-weight="bold" font-family="'Helvetica Neue', Helvetica, Arial-Unicode, Arial, Sans-serif">Created by andriwidodo</text><text x="0" y="120" fill="#000000" font-size="5px" font-weight="bold" font-family="'Helvetica Neue', Helvetica, Arial-Unicode, Arial, Sans-serif">from the Noun Project</text></svg>